<?xml version="1.0" encoding="UTF-8"?>
<svg id="Layer_2" data-name="Layer 2" xmlns="http://www.w3.org/2000/svg" viewBox="0 0 554.23 197.24">
  <defs>
    <style>
      .cls-1 {
        fill: #231f20;
      }

      .cls-1, .cls-2 {
        stroke-width: 0px;
      }

      .cls-2 {
        fill: #fff;
      }
    </style>
  </defs>
  <g id="Layer_1-2" data-name="Layer 1">
    <path class="cls-1" d="M100.24,2.66c-.41-.7-1.07-1.05-1.98-1.05h-20.55c-.83,0-1.63.27-2.41.81-.79.53-1.39,1.17-1.8,1.92l-16.8,38.58c-.84,1.92.57,4.07,2.67,4.07h20.29c1.15,0,2.19-.68,2.66-1.73L100.37,4.71c.33-.66.29-1.34-.13-2.05ZM37.72,89.52c.41.74,1.01,1.38,1.79,1.92.79.54,1.59.8,2.42.8h16.47c.82,0,1.62-.26,2.41-.8.78-.54,1.38-1.18,1.8-1.92l12.61-28.32c.86-1.92-.55-4.09-2.66-4.09H27.82c-2.1,0-3.51,2.16-2.66,4.09l12.56,28.32ZM26.82,4.34c-.41-.75-1.01-1.39-1.79-1.92-.79-.54-1.59-.81-2.42-.81H2.43c-1.07,0-1.79.37-2.16,1.12-.38.74-.35,1.57.06,2.47l17.76,40.06c.47,1.05,1.51,1.73,2.66,1.73h20.29c2.1,0,3.5-2.15,2.66-4.07L26.82,4.34Z"/>
    <path class="cls-1" d="M99.87,46.93c0-6.44,1.24-12.51,3.71-18.2,2.48-5.7,5.82-10.67,10.03-14.92,4.21-4.25,9.16-7.61,14.86-10.09s11.76-3.71,18.2-3.71,12.5,1.24,18.2,3.71,10.67,5.84,14.92,10.09c4.25,4.25,7.61,9.22,10.09,14.92,2.48,5.7,3.71,11.76,3.71,18.2s-1.24,12.5-3.71,18.2c-2.48,5.7-5.84,10.67-10.09,14.92-4.25,4.25-9.22,7.61-14.92,10.09-5.7,2.48-11.76,3.71-18.2,3.71s-12.51-1.24-18.2-3.71c-5.7-2.48-10.65-5.84-14.86-10.09-4.21-4.25-7.55-9.22-10.03-14.92-2.48-5.7-3.71-11.76-3.71-18.2Z"/>
    <path class="cls-1" d="M273.95,72.43v16.84c0,.83-.29,1.53-.87,2.11s-1.28.87-2.1.87h-61.78c-.91,0-1.63-.29-2.17-.87-.54-.58-.8-1.28-.8-2.11V4.58c0-.82.27-1.53.8-2.1.54-.58,1.26-.87,2.17-.87h18.57c.82,0,1.53.29,2.1.87.58.58.87,1.28.87,2.1v61.91c0,.83.27,1.53.8,2.1.54.58,1.26.87,2.17.87h37.27c.82,0,1.53.29,2.1.87.58.58.87,1.28.87,2.1Z"/>
    <path class="cls-1" d="M333.38,90.01l-24.02-26.87c-.58-.66-1.05-.91-1.42-.74-.37.17-.56.66-.56,1.49v25.38c0,.83-.29,1.53-.87,2.11-.58.58-1.28.87-2.11.87h-18.57c-.91,0-1.63-.29-2.17-.87-.54-.58-.8-1.28-.8-2.11V4.58c0-.82.27-1.53.8-2.1.54-.58,1.26-.87,2.17-.87h18.57c.82,0,1.53.29,2.11.87.58.58.87,1.28.87,2.1v28.48c0,.83.16,1.3.5,1.42.33.12.74-.14,1.24-.8l22.29-29.59c.5-.66,1.2-1.22,2.11-1.67.91-.45,1.81-.68,2.72-.68h23.65c.91,0,1.49.39,1.73,1.18.25.79.12,1.51-.37,2.17l-32.56,40.73c-.5.66-.72,1.42-.68,2.29.04.87.35,1.59.93,2.17,2.8,3.05,5.78,6.23,8.91,9.53,3.14,3.3,6.25,6.62,9.35,9.97,3.1,3.34,6.15,6.65,9.16,9.91,3.01,3.26,5.88,6.29,8.61,9.1.58.66.78,1.4.62,2.23-.17.83-.7,1.24-1.61,1.24h-25.63c-.91,0-1.84-.21-2.79-.62-.95-.41-1.67-.95-2.17-1.61Z"/>
    <path class="cls-1" d="M361.85,46.93c0-6.44,1.24-12.51,3.71-18.2,2.48-5.7,5.82-10.67,10.03-14.92,4.21-4.25,9.16-7.61,14.86-10.09,5.7-2.48,11.76-3.71,18.2-3.71s12.5,1.24,18.2,3.71,10.67,5.84,14.92,10.09c4.25,4.25,7.61,9.22,10.09,14.92,2.48,5.7,3.71,11.76,3.71,18.2s-1.24,12.5-3.71,18.2c-2.48,5.7-5.84,10.67-10.09,14.92-4.25,4.25-9.22,7.61-14.92,10.09-5.7,2.48-11.76,3.71-18.2,3.71s-12.5-1.24-18.2-3.71c-5.7-2.48-10.65-5.84-14.86-10.09-4.21-4.25-7.55-9.22-10.03-14.92-2.48-5.7-3.71-11.76-3.71-18.2ZM386.37,46.93c0,3.14.58,6.11,1.73,8.91,1.15,2.81,2.74,5.28,4.77,7.43,2.02,2.15,4.4,3.86,7.12,5.14,2.72,1.28,5.61,1.92,8.67,1.92s5.94-.64,8.67-1.92c2.72-1.28,5.12-2.99,7.18-5.14,2.06-2.15,3.67-4.62,4.83-7.43,1.16-2.81,1.73-5.78,1.73-8.91s-.58-6-1.73-8.85c-1.16-2.85-2.77-5.32-4.83-7.43-2.06-2.1-4.46-3.8-7.18-5.08-2.72-1.28-5.61-1.92-8.67-1.92s-5.94.64-8.67,1.92c-2.72,1.28-5.1,2.97-7.12,5.08-2.02,2.1-3.61,4.58-4.77,7.43-1.16,2.85-1.73,5.8-1.73,8.85Z"/>
    <path class="cls-1" d="M491.36,89.52L453.97,5.2c-.41-.91-.43-1.73-.06-2.48.37-.74,1.09-1.11,2.17-1.11h20.18c.82,0,1.63.27,2.41.81.78.54,1.38,1.18,1.8,1.92l21.79,49.77c.41.74.95,1.11,1.61,1.11s1.2-.37,1.61-1.11l21.67-49.77c.41-.74,1.01-1.38,1.79-1.92.78-.54,1.59-.81,2.41-.81h20.55c.91,0,1.57.35,1.98,1.05.41.7.45,1.38.12,2.04l-37.76,84.81c-.41.74-1.01,1.38-1.79,1.92-.79.54-1.59.8-2.41.8h-16.47c-.83,0-1.63-.27-2.41-.8-.79-.54-1.38-1.18-1.79-1.92Z"/>
    <path class="cls-1" d="M28.95,164.55c4.46,2.89,8.87,5.16,13.25,6.81,4.37,1.65,8.46,2.48,12.26,2.48s6.4-.51,8.3-1.55c1.9-1.03,2.85-2.58,2.85-4.64,0-1.07-.41-1.92-1.24-2.54-.83-.62-1.92-1.13-3.28-1.55-1.36-.41-2.95-.74-4.77-.99-1.82-.25-3.67-.58-5.57-.99-1.82-.33-3.94-.72-6.38-1.18-2.44-.45-4.93-1.11-7.49-1.98-2.56-.87-5.1-1.96-7.61-3.28-2.52-1.32-4.77-3.01-6.75-5.08-1.98-2.06-3.57-4.52-4.77-7.37-1.2-2.85-1.8-6.21-1.8-10.09,0-5.7,1.11-10.4,3.34-14.12,2.23-3.71,5.05-6.66,8.48-8.85,3.42-2.19,7.24-3.71,11.45-4.58,4.21-.87,8.3-1.3,12.26-1.3,6.93,0,13.14,1.01,18.63,3.03,5.49,2.02,10.75,4.97,15.79,8.85.66.58,1.03,1.28,1.11,2.11.08.83-.12,1.57-.62,2.23l-9.66,13.74c-.5.66-1.16,1.07-1.98,1.24-.83.17-1.57,0-2.23-.5-4.21-2.64-8.13-4.52-11.76-5.63-3.63-1.11-6.98-1.67-10.03-1.67-.91,0-1.96.02-3.16.06-1.2.04-2.33.21-3.4.5-1.07.29-1.96.76-2.66,1.42-.7.66-1.05,1.57-1.05,2.72s.87,2.19,2.6,3.1c1.73.91,3.71,1.69,5.94,2.35,2.23.66,4.37,1.18,6.44,1.55,2.06.37,3.38.6,3.96.68,2.97.58,6.23,1.42,9.78,2.54,3.55,1.11,6.87,2.77,9.97,4.95,3.1,2.19,5.7,5.04,7.8,8.54,2.1,3.51,3.16,7.91,3.16,13.19,0,4.95-.87,9.22-2.6,12.81s-4.15,6.54-7.24,8.85c-3.1,2.31-6.81,4.02-11.14,5.14s-9.14,1.67-14.42,1.67c-4.29,0-8.3-.35-12.01-1.05-3.71-.7-7.18-1.67-10.4-2.91-3.22-1.24-6.21-2.7-8.98-4.4-2.77-1.69-5.3-3.49-7.61-5.39-.66-.5-1.03-1.18-1.11-2.04-.08-.87.12-1.63.62-2.29l9.53-13.74c.5-.66,1.15-1.07,1.98-1.24.82-.17,1.57-.04,2.23.37Z"/>
    <path class="cls-1" d="M159.69,127.77h-17.33c-.83,0-1.53.29-2.1.87-.58.58-.87,1.28-.87,2.1v61.91c0,.83-.27,1.53-.8,2.11-.54.58-1.26.87-2.17.87h-18.57c-.83,0-1.53-.29-2.1-.87-.58-.58-.87-1.28-.87-2.11v-61.91c0-.82-.27-1.53-.8-2.1-.54-.58-1.26-.87-2.17-.87h-17.58c-.83,0-1.53-.29-2.1-.87-.58-.58-.87-1.28-.87-2.11v-16.84c0-.82.29-1.53.87-2.11.58-.58,1.28-.87,2.1-.87h65.37c.91,0,1.63.29,2.17.87.54.58.8,1.28.8,2.11v16.84c0,.83-.27,1.53-.8,2.11-.54.58-1.26.87-2.17.87Z"/>
    <path class="cls-1" d="M172.2,108.09c0-.82.29-1.53.86-2.1.57-.58,1.27-.87,2.1-.87h18.6c.82,0,1.52.29,2.09.87.57.58.86,1.28.86,2.1v50.14c0,3.22.52,5.88,1.55,7.99,1.04,2.1,2.32,3.76,3.85,4.95,1.53,1.2,3.17,2.04,4.91,2.54s3.32.74,4.72.74,2.98-.25,4.72-.74c1.74-.5,3.36-1.34,4.85-2.54,1.49-1.2,2.75-2.85,3.79-4.95,1.04-2.11,1.56-4.77,1.56-7.99v-50.14c0-.82.29-1.53.86-2.1.57-.58,1.27-.87,2.1-.87h18.6c.82,0,1.52.29,2.09.87.58.58.86,1.28.86,2.1v50.14c0,5.86-.93,11.19-2.78,15.97-1.85,4.79-4.51,8.87-7.97,12.26-3.46,3.39-7.62,6-12.49,7.86-4.86,1.86-10.26,2.79-16.19,2.79s-11.33-.93-16.19-2.79c-4.86-1.86-9.02-4.48-12.49-7.86-3.46-3.38-6.14-7.47-8.04-12.26-1.9-4.79-2.84-10.11-2.84-15.97v-50.14Z"/>
    <path class="cls-1" d="M270.01,192.65v-84.69c0-.82.29-1.53.87-2.11.58-.58,1.28-.87,2.11-.87h33.8c12.96,0,23.57,3.8,31.82,11.39,4.46,4.13,7.84,9.04,10.15,14.73,2.31,5.7,3.47,12.09,3.47,19.19s-1.16,13.52-3.47,19.25c-2.31,5.74-5.7,10.67-10.15,14.8-4.13,3.71-8.85,6.52-14.18,8.42-5.32,1.9-11.21,2.85-17.64,2.85h-33.8c-.83,0-1.53-.29-2.11-.87-.58-.58-.87-1.28-.87-2.11ZM297.49,172.84h9.29c2.31,0,4.71-.29,7.18-.87,2.48-.58,4.71-1.67,6.69-3.28,1.98-1.61,3.61-3.88,4.89-6.81,1.28-2.93,1.92-6.75,1.92-11.45s-.64-8.52-1.92-11.45c-1.28-2.93-2.93-5.2-4.95-6.81-2.02-1.61-4.25-2.7-6.69-3.28-2.44-.58-4.81-.87-7.12-.87h-9.29c-.83,0-1.53.29-2.1.87-.58.58-.87,1.28-.87,2.1v38.88c0,.83.29,1.53.87,2.1.58.58,1.28.87,2.1.87Z"/>
    <path class="cls-1" d="M388.39,195.62h-18.6c-.9,0-1.62-.29-2.16-.87-.53-.58-.8-1.28-.8-2.11v-84.56c0-.82.27-1.53.8-2.1.53-.58,1.25-.87,2.16-.87h18.6c.82,0,1.52.29,2.09.87.58.58.86,1.28.86,2.1v84.56c0,.83-.29,1.53-.86,2.11-.57.58-1.27.87-2.09.87Z"/>
    <path class="cls-1" d="M407.89,155.37c-2,0-3.48,1.83-3.1,3.79.62,3.22,1.58,6.34,2.9,9.35,2.48,5.7,5.82,10.67,10.03,14.92,4.21,4.25,9.16,7.62,14.86,10.09,5.69,2.48,11.76,3.72,18.2,3.72s12.5-1.24,18.2-3.72c5.69-2.47,10.66-5.84,14.92-10.09,4.25-4.25,7.61-9.22,10.09-14.92,1.3-3.01,2.27-6.13,2.89-9.35.38-1.96-1.1-3.79-3.1-3.79h-85.88ZM493.99,132.11c-2.48-5.7-5.84-10.67-10.09-14.92-4.26-4.25-9.23-7.61-14.92-10.09-5.7-2.48-11.77-3.71-18.2-3.71s-12.51,1.23-18.2,3.71c-5.7,2.48-10.65,5.84-14.86,10.09-4.21,4.25-7.55,9.22-10.03,14.92-1.22,2.81-2.14,5.71-2.76,8.7-.48,2.29,1.3,4.44,3.64,4.44h84.55c2.34,0,4.11-2.15,3.64-4.44-.62-2.99-1.54-5.89-2.76-8.7Z"/>
    <path class="cls-1" d="M505.34,172.78c0,3.14.58,6.11,1.73,8.91,1.15,2.81,2.74,5.28,4.77,7.43,2.02,2.15,4.4,3.86,7.12,5.14,2.72,1.28,5.61,1.92,8.67,1.92s5.94-.64,8.67-1.92c2.72-1.28,5.12-2.99,7.18-5.14,2.06-2.15,3.67-4.62,4.83-7.43,1.16-2.8,1.73-5.78,1.73-8.91s-.58-6-1.73-8.85c-1.16-2.85-2.77-5.32-4.83-7.43-2.06-2.11-4.46-3.8-7.18-5.08-2.72-1.28-5.61-1.92-8.67-1.92s-5.94.64-8.67,1.92c-2.72,1.28-5.1,2.97-7.12,5.08-2.02,2.1-3.61,4.58-4.77,7.43-1.16,2.85-1.73,5.8-1.73,8.85Z"/>
    <path class="cls-2" d="M172.2,46.92h0c0,2.15-1.74,3.9-3.89,3.9h-14.73c-2.15,0-3.89,1.74-3.89,3.89v14.73c0,2.15-1.74,3.89-3.89,3.89h0c-2.15,0-3.89-1.74-3.89-3.89v-14.73c0-2.15-1.74-3.89-3.89-3.89h-14.73c-2.15,0-3.89-1.74-3.89-3.89h0c0-2.15,1.74-3.9,3.89-3.9h14.73c2.15,0,3.89-1.74,3.89-3.89v-14.73c0-2.15,1.74-3.89,3.89-3.89h0c2.15,0,3.89,1.74,3.89,3.89v14.73c0,2.15,1.74,3.89,3.89,3.89h14.73c2.15,0,3.89,1.74,3.89,3.89Z"/>
  </g>
</svg>